# File produced by Open Asset Import Library (http://www.assimp.sf.net)
# (assimp v6.0.0)

mtllib hele_house_a_struct.mtl

# 126 vertex positions
v 0.0606832132 0.0321950167 0.0418143608
v 0.0594172776 0.032195013 0.0354387313
v 0.0451400168 0.032195013 0.035433881
v 0.0438697375 0.0321950167 0.0418086201
v 0.0451400168 0.032195013 0.035433881
v 0.0319514237 0.032195013 0.0299656931
v 0.0283383224 0.032195013 0.0353691131
v 0.0319514237 0.032195013 0.0299656931
v 0.0218593068 0.0321950093 0.0198667198
v 0.0164534505 0.032195013 0.0234761294
v 0.0218593068 0.0321950093 0.0198667198
v 0.0164001398 0.0321950093 0.00667438377
v 0.0100245113 0.0321950093 0.00794031657
v 0.0164001398 0.0321950093 0.00667438377
v 0.0164049994 0.0321949981 -0.030952245
v 0.0100302361 0.0321949981 -0.0322225243
v 0.0164049994 0.0321949981 -0.030952245
v 0.0218731631 0.0321949944 -0.0441408642
v 0.0164697692 0.0321950205 -0.0477539636
v 0.0218731631 0.0321949944 -0.0441408642
v 0.0319721475 0.0321950205 -0.0542329662
v 0.0606832132 0.0249374453 0.0418143608
v 0.0606832132 0.0321950167 0.0418143608
v 0.0438697375 0.0321950167 0.0418086201
v 0.0218731631 0.0249374434 -0.0441408642
v 0.0218731631 0.0321949944 -0.0441408642
v 0.0164049994 0.0321949981 -0.030952245
v 0.0451400168 0.0249374453 0.035433881
v 0.0451400168 0.032195013 0.035433881
v 0.0594172776 0.032195013 0.0354387313
v 0.0164697692 0.0249374434 -0.0477539636
v 0.0164697692 0.0321950205 -0.0477539636
v 0.0283627305 0.0321950205 -0.059638828
v 0.0438697375 0.0249374453 0.0418086201
v 0.0438697375 0.0321950167 0.0418086201
v 0.0283383224 0.032195013 0.0353691131
v 0.0319721475 0.0249374453 -0.0542329662
v 0.0319721475 0.0321950205 -0.0542329662
v 0.0218731631 0.0321949944 -0.0441408642
v 0.0319514237 0.0249374434 0.029965695
v 0.0319514237 0.032195013 0.0299656931
v 0.0451400168 0.032195013 0.035433881
v 0.0283383224 0.0249374453 0.0353691131
v 0.0283383224 0.032195013 0.0353691131
v 0.0164534505 0.032195013 0.0234761294
v 0.0218593068 0.0249374453 0.019866718
v 0.0218593068 0.0321950093 0.0198667198
v 0.0319514237 0.032195013 0.0299656931
v 0.0164534505 0.0249374453 0.0234761294
v 0.0164534505 0.032195013 0.0234761294
v 0.0100245113 0.0321950093 0.00794031657
v 0.0164001398 0.0249374453 0.00667437958
v 0.0164001398 0.0321950093 0.00667438377
v 0.0218593068 0.0321950093 0.0198667198
v 0.0100245113 0.0249374453 0.00794031657
v 0.0100245113 0.0321950093 0.00794031657
v 0.0100302361 0.0321949981 -0.0322225243
v 0.0164049994 0.0249374472 -0.0309522431
v 0.0164049994 0.0321949981 -0.030952245
v 0.0164001398 0.0321950093 0.00667438377
v 0.0100302361 0.0249374453 -0.0322225243
v 0.0100302361 0.0321949981 -0.0322225243
v 0.0164697692 0.0321950205 -0.0477539636
v 0.0438697375 0.0321950167 0.0418086201
v 0.0606832132 0.0321950167 0.0418143608
v 0.0451400168 0.032195013 0.035433881
v 0.0283383224 0.032195013 0.0353691131
v 0.0438697375 0.0321950167 0.0418086201
v 0.0319514237 0.032195013 0.0299656931
v 0.0164534505 0.032195013 0.0234761294
v 0.0283383224 0.032195013 0.0353691131
v 0.0218593068 0.0321950093 0.0198667198
v 0.0100245113 0.0321950093 0.00794031657
v 0.0164534505 0.032195013 0.0234761294
v 0.0164001398 0.0321950093 0.00667438377
v 0.0100302361 0.0321949981 -0.0322225243
v 0.0100245113 0.0321950093 0.00794031657
v 0.0164049994 0.0321949981 -0.030952245
v 0.0164697692 0.0321950205 -0.0477539636
v 0.0100302361 0.0321949981 -0.0322225243
v 0.0218731631 0.0321949944 -0.0441408642
v 0.0283627305 0.0321950205 -0.059638828
v 0.0164697692 0.0321950205 -0.0477539636
v 0.0319721475 0.0321950205 -0.0542329662
v 0.0438697375 0.0249374453 0.0418086201
v 0.0606832132 0.0249374453 0.0418143608
v 0.0438697375 0.0321950167 0.0418086201
v 0.0164049994 0.0249374472 -0.0309522431
v 0.0218731631 0.0249374434 -0.0441408642
v 0.0164049994 0.0321949981 -0.030952245
v 0.0594172776 0.0249374453 0.0354387313
v 0.0451400168 0.0249374453 0.035433881
v 0.0594172776 0.032195013 0.0354387313
v 0.0283627305 0.0249374434 -0.059638828
v 0.0164697692 0.0249374434 -0.0477539636
v 0.0283627305 0.0321950205 -0.059638828
v 0.0283383224 0.0249374453 0.0353691131
v 0.0438697375 0.0249374453 0.0418086201
v 0.0283383224 0.032195013 0.0353691131
v 0.0218731631 0.0249374434 -0.0441408642
v 0.0319721475 0.0249374453 -0.0542329662
v 0.0218731631 0.0321949944 -0.0441408642
v 0.0451400168 0.0249374453 0.035433881
v 0.0319514237 0.0249374434 0.029965695
v 0.0451400168 0.032195013 0.035433881
v 0.0164534505 0.0249374453 0.0234761294
v 0.0283383224 0.0249374453 0.0353691131
v 0.0164534505 0.032195013 0.0234761294
v 0.0319514237 0.0249374434 0.029965695
v 0.0218593068 0.0249374453 0.019866718
v 0.0319514237 0.032195013 0.0299656931
v 0.0100245113 0.0249374453 0.00794031657
v 0.0164534505 0.0249374453 0.0234761294
v 0.0100245113 0.0321950093 0.00794031657
v 0.0218593068 0.0249374453 0.019866718
v 0.0164001398 0.0249374453 0.00667437958
v 0.0218593068 0.0321950093 0.0198667198
v 0.0100302361 0.0249374453 -0.0322225243
v 0.0100245113 0.0249374453 0.00794031657
v 0.0100302361 0.0321949981 -0.0322225243
v 0.0164001398 0.0249374453 0.00667437958
v 0.0164049994 0.0249374472 -0.0309522431
v 0.0164001398 0.0321950093 0.00667438377
v 0.0164697692 0.0249374434 -0.0477539636
v 0.0100302361 0.0249374453 -0.0322225243
v 0.0164697692 0.0321950205 -0.0477539636

# 60 UV coordinates
vt 0.817668796 0.464283794 0
vt 0.817679822 0.522719324 0
vt 0.872792482 0.522395074 0
vt 0.817668796 0.46439001 0
vt 0.817668796 0.522512376 0
vt 0.872792482 0.522493899 0
vt 0.817668796 0.4642919 0
vt 0.817668796 0.522414505 0
vt 0.872792482 0.522485971 0
vt 0.66401583 0.463966608 0
vt 0.669852197 0.522753179 0
vt 0.843320608 0.522798002 0
vt 0.817668796 0.464367598 0
vt 0.872792482 0.522746921 0
vt 0.817668796 0.522417724 0
vt 0.872792482 0.522434592 0
vt 0.721686602 0.468637198 0
vt 0.721686602 0.520016074 0
vt 0.769600511 0.52001667 0
vt 0.884195209 0.525321305 0
vt 0.884195626 0.462470412 0
vt 0.834424376 0.462468892 0
vt 0.553950489 0.525321126 0
vt 0.553950012 0.462474406 0
vt 0.504182398 0.462477297 0
vt 0.721686125 0.520023406 0
vt 0.769607306 0.520025671 0
vt 0.721686423 0.520016611 0
vt 0.769601405 0.520018697 0
vt 0.933966517 0.52532351 0
vt 0.933966815 0.462472409 0
vt 0.6037184 0.525318921 0
vt 0.603718102 0.462471306 0
vt 0.721686125 0.520017922 0
vt 0.769602716 0.520021021 0
vt 0.653487206 0.525317907 0
vt 0.653487027 0.462469101 0
vt 0.721686125 0.52001971 0
vt 0.769604206 0.520023286 0
vt 0.703257024 0.525317609 0
vt 0.703257024 0.4624677 0
vt 0.738615811 0.399525493 0
vt 0.738615096 0.4623757 0
vt 0.878625274 0.462385505 0
vt 0.834424078 0.525319576 0
vt 0.721686006 0.520022571 0
vt 0.769606709 0.520025492 0
vt 0.872792482 0.464643598 0
vt 0.872792482 0.464368105 0
vt 0.872792482 0.464269102 0
vt 0.849176884 0.464019507 0
vt 0.872792482 0.464311808 0
vt 0.76960057 0.468637198 0
vt 0.504182875 0.525323689 0
vt 0.769607723 0.468639106 0
vt 0.769601822 0.468638003 0
vt 0.769603074 0.46863851 0
vt 0.769604802 0.468639314 0
vt 0.878625929 0.399533689 0
vt 0.769607127 0.468639314 0

# 35 vertex normals
vn 0 0.0253999997 6.0079639e-09
vn -4.62041294e-09 0.0253999997 5.08807751e-09
vn 4.56567539e-09 0.0253999997 -3.00288927e-09
vn -8.09724021e-09 0.0253999997 3.12473336e-09
vn 0 0.0253999997 -1.96773753e-09
vn 0 0.0253999997 -6.69391209e-10
vn 5.47453816e-09 0.0253999997 7.04314118e-09
vn -8.66820665e-06 6.05584205e-09 0.0253999997
vn 0.023463225 2.31937713e-09 0.00972815603
vn 8.66200935e-06 -6.05584205e-09 -0.0253999997
vn -0.0179543886 3.21223403e-09 -0.0179666281
vn -0.00972815603 5.59407853e-09 0.0234632269
vn 0.0179543942 4.2835846e-09 0.0179666262
vn 0.00972816162 -5.59407765e-09 -0.0234632213
vn -0.0179666337 4.28066738e-09 0.0179543886
vn 0.0179666337 3.21004645e-09 -0.0179543886
vn -0.023469856 -1.73642356e-09 0.00971215498
vn 0.0234698523 1.73642534e-09 -0.0097121466
vn -0.0253999997 -8.63120935e-13 -3.62018545e-06
vn 0.0253999997 7.82166487e-13 3.28063857e-06
vn -0.0234632269 -2.3193778e-09 -0.00972815976
vn 3.87697963e-09 0.0253999997 -6.05584205e-09
vn -8.53330739e-09 0.0253999997 2.47164955e-09
vn 0 0.0253999997 3.09328829e-09
vn 0 0.0253999997 -2.22608065e-09
vn 5.95906879e-09 0.0253999997 6.3185297e-09
vn 0 0.0253999997 -6.05584205e-09
vn -0.0179543942 1.17253753e-08 -0.0179666281
vn -0.00972815417 5.59407809e-09 0.023463225
vn 0.00972816441 -5.59407809e-09 -0.023463225
vn -0.0179666374 -3.72381459e-09 0.017954383
vn 0.0179666374 -4.28066649e-09 -0.0179543868
vn -0.0234698523 -1.68666592e-09 0.00971215218
vn 0.0234698523 2.39763787e-09 -0.00971214939
vn -0.0234632287 1.6828503e-09 -0.00972815603

# Mesh 'hele_house_courtyardMesh_003-mesh' with 42 faces
g hele_house_courtyardMesh_003-mesh
usemtl DefaultMaterial
f  1/1/1 2/2/1 3/3/1
f  4/4/2 5/5/2 6/6/2
f  7/7/3 8/8/3 9/3/3
f  10/1/4 11/8/4 12/9/4
f  13/10/5 14/11/5 15/12/5
f  16/13/6 17/5/6 18/14/6
f  19/7/7 20/15/7 21/16/7
f  22/17/8 23/18/8 24/19/8
f  25/20/9 26/21/9 27/22/9
f  28/23/10 29/24/10 30/25/10
f  31/17/11 32/26/11 33/27/11
f  34/17/12 35/28/12 36/29/12
f  37/30/13 38/31/13 39/21/13
f  40/32/14 41/33/14 42/24/14
f  43/17/15 44/34/15 45/35/15
f  46/36/16 47/37/16 48/33/16
f  49/17/17 50/38/17 51/39/17
f  52/40/18 53/41/18 54/37/18
f  55/42/19 56/43/19 57/44/19
f  58/45/20 59/22/20 60/41/20
f  61/17/21 62/46/21 63/47/21
f  64/48/1 65/1/1 66/3/1
f  67/49/22 68/4/22 69/6/22
f  70/50/23 71/7/23 72/3/23
f  73/49/24 74/1/24 75/9/24
f  76/51/25 77/10/25 78/12/25
f  79/48/26 80/13/26 81/14/26
f  82/52/27 83/7/27 84/16/27
f  85/53/8 86/17/8 87/19/8
f  88/45/9 89/20/9 90/22/9
f  91/54/10 92/23/10 93/25/10
f  94/55/28 95/17/28 96/27/28
f  97/56/29 98/17/29 99/29/29
f  100/20/13 101/30/13 102/21/13
f  103/23/30 104/32/30 105/24/30
f  106/57/31 107/17/31 108/35/31
f  109/32/32 110/36/32 111/33/32
f  112/58/33 113/17/33 114/39/33
f  115/36/34 116/40/34 117/37/34
f  118/59/19 119/42/19 120/44/19
f  121/40/20 122/45/20 123/41/20
f  124/60/35 125/17/35 126/47/35

